# xmcd
#
# Track frame offsets:
#	150
#	14796
#	38356
#	52927
#	63750
#	82956
#	99662
#	110084
#	120981
#	135759
#	155028
#	166312
#	181749
#	193913
#	212184
#	226188
#	241065
#	252434
#	262159
#	272057
#
# Disc length: 3797 seconds
#
# Revision: 1
# Processed by: cddbd v1.5.2PL0 Copyright (c) Steve Scherf et al.
# Submitted via: audiograbber 1.83.01
#
DISCID=0b0ed314
DTITLE=Louise Morrissey -  The Gift
DYEAR=1900
DGENRE=
TTITLE0=Sailor
TTITLE1=The Gift
TTITLE2=Tipperary On My Mind
TTITLE3=If I Could Only Start Over  
TTITLE4=An Irish Harvest Day
TTITLE5=Grandpa
TTITLE6=Forever And Ever
TTITLE7=My Dixie Darling
TTITLE8=The Night Daniel O Donnell Came To Town
TTITLE9=The Rose Of Allendale
TTITLE10=Every Second, Every Minute
TTITLE11=Part Of Me
TTITLE12=What Part Of No
TTITLE13=Nobodys Child
TTITLE14=I Still Love You
TTITLE15=Save The Last Dance For Me
TTITLE16=You Are The One
TTITLE17=If I Should Come Back
TTITLE18=Everybodys Reaching Out For Someone
TTITLE19=The Old Rugged Cross
EXTD=
EXTT0=
EXTT1=
EXTT2=
EXTT3=
EXTT4=
EXTT5=
EXTT6=
EXTT7=
EXTT8=
EXTT9=
EXTT10=
EXTT11=
EXTT12=
EXTT13=
EXTT14=
EXTT15=
EXTT16=
EXTT17=
EXTT18=
EXTT19=
PLAYORDER=
